<svg xmlns="http://www.w3.org/2000/svg" width="273.844" height="176" viewBox="0 0 273.844 176">
  <metadata><?xpacket begin="﻿" id="W5M0MpCehiHzreSzNTczkc9d"?>
<x:xmpmeta xmlns:x="adobe:ns:meta/" x:xmptk="Adobe XMP Core 5.6-c140 79.160451, 2017/05/06-01:08:21        ">
   <rdf:RDF xmlns:rdf="http://www.w3.org/1999/02/22-rdf-syntax-ns#">
      <rdf:Description rdf:about=""/>
   </rdf:RDF>
</x:xmpmeta>
                                                                                                    
                                                                                                    
                                                                                                    
                                                                                                    
                                                                                                    
                                                                                                    
                                                                                                    
                                                                                                    
                                                                                                    
                                                                                                    
                                                                                                    
                                                                                                    
                                                                                                    
                                                                                                    
                                                                                                    
                                                                                                    
                                                                                                    
                                                                                                    
                                                                                                    
                                                                                                    
                           
<?xpacket end="w"?></metadata>
<defs>
    <style>
      .cls-1 {
        fill: #b0b0ff;
        fill-rule: evenodd;
      }

      .cls-2 {
        font-size: 60px;
        fill: #fff;
        text-anchor: middle;
        font-family: "Source Sans Pro";
      }

      .cls-3 {
        fill: none;
        stroke: #fff;
        stroke-width: 3px;
      }
    </style>
  </defs>
  <path class="cls-1" d="M167.973-106.635c9.412-.85,18.036-1.339,25.877-1.368a135.284,135.284,0,0,1,21.173,1.376c12.55,1.963,21.9,6.086,28.218,13.274,13.448,14.58,14.205,41.027,26.037,93.861,2.834,13.109,5.073,26.078,6.56,38.614,0.745,6.267,1.3,12.425,1.636,18.435s0.46,11.869.337,17.544c-0.457,22.72-4.924,42.335-14.459,57.16-18.107,30.361-56.151,42.282-92.7,43.739-39.513-2.271-70.667-12.348-100.053-44.607C42.13,100.625,15.366,47.668,5.778-6.046A117.435,117.435,0,0,1,4.014-24.2q-0.027-2.073.041-4.052t0.222-3.867a67.636,67.636,0,0,1,.976-7.2,48.426,48.426,0,0,1,10.26-22.392C25.4-73.562,40.848-79.818,58.563-83.8c17.53-4.318,36.747-7.361,54.976-11.749C131.956-99.623,149.455-104.992,167.973-106.635Z" transform="translate(-4)"/>
  <g id="Uzhland">
    <text id="UZH" class="cls-2" transform="translate(135.921 105.294) scale(0.519 0.529)">UZH</text>
    <rect class="cls-3" x="100" y="76" width="73" height="36"/>
    <text id="LAND" class="cls-2" transform="translate(214.812 105.118) scale(0.519 0.529)">LAND</text>
  </g>
</svg>
